<?xml version="1.0" standalone="no"?>
<!DOCTYPE svg PUBLIC "-//W3C//DTD SVG 20010904//EN"
 "http://www.w3.org/TR/2001/REC-SVG-20010904/DTD/svg10.dtd">
<svg version="1.0" xmlns="http://www.w3.org/2000/svg"
 width="512.000000pt" height="512.000000pt" viewBox="0 0 512.000000 512.000000"
 preserveAspectRatio="xMidYMid meet">
<metadata>
Created by potrace 1.14, written by Peter Selinger 2001-2017
</metadata>
<g transform="translate(0.000000,512.000000) scale(0.100000,-0.100000)"
fill="#000000" stroke="none">
<path d="M397 5104 c-99 -24 -167 -62 -243 -138 -77 -78 -114 -144 -139 -248
-22 -95 -22 -4221 0 -4316 25 -104 62 -170 139 -248 78 -77 144 -114 248 -139
95 -22 4221 -22 4316 0 104 25 170 62 248 139 77 78 114 144 139 248 22 95 22
4221 0 4316 -25 104 -62 170 -139 248 -78 77 -144 114 -248 139 -92 22 -4231
21 -4321 -1z m753 -1408 c438 -95 713 -349 815 -752 48 -188 55 -436 19 -654
-80 -478 -380 -775 -877 -872 -101 -19 -153 -22 -549 -26 l-438 -4 0 1167 0
1167 478 -5 c390 -4 491 -7 552 -21z m1330 18 c0 -4 83 -331 184 -728 101
-396 190 -748 197 -780 l13 -60 24 90 c23 85 357 1232 408 1402 l25 82 192 0
192 0 179 -598 c99 -328 205 -684 236 -790 l57 -194 123 489 c67 268 157 624
199 791 l76 302 213 0 c199 0 213 -1 208 -17 -4 -13 -540 -2023 -607 -2275
l-10 -38 -189 0 c-171 0 -189 2 -194 18 -13 43 -448 1513 -464 1567 l-17 60
-229 -788 c-125 -433 -233 -803 -239 -822 l-10 -35 -188 0 -188 0 -15 53 c-35
124 -596 2256 -596 2266 0 8 62 11 210 11 116 0 210 -3 210 -6z"/>
<path d="M520 2555 l0 -795 173 0 c353 0 533 55 687 210 156 156 218 376 199
706 -8 135 -30 226 -79 329 -47 99 -100 160 -189 220 -147 97 -276 125 -582
125 l-209 0 0 -795z"/>
</g>
</svg>
